# xmcd CD Database Entry
#
# Track frame offsets:
# 150
# 19515
# 38351
# 50650
# 66948
# 89784
# 102593
# 121653
# 134269
# 147862
# 158047
# 163751
# 168117
# 184348
# 191900
# 195085
# 204111
# 209400
# 226039
# 227485
# 234519
# 242536
# 249302
# 254907
# 269957
#
# Disc length: 3864 seconds
#
# Revision: 2
# Processed by: cddbd v1.5.2PL0 Copyright (c) Steve Scherf et al.
# Submitted via: tcd 2.0b
#
DISCID=5c0f1619
DTITLE=未知 - 未知
DYEAR=1900
DGENRE=
TTITLE0=トラック 1
TTITLE1=トラック 2
TTITLE2=トラック 3
TTITLE3=トラック 4
TTITLE4=トラック 5
TTITLE5=トラック 6
TTITLE6=トラック 7
TTITLE7=トラック 8
TTITLE8=トラック 9
TTITLE9=トラック 10
TTITLE10=トラック 11
TTITLE11=トラック 12
TTITLE12=トラック 13
TTITLE13=トラック 14
TTITLE14=トラック 15
TTITLE15=トラック 16
TTITLE16=トラック 17
TTITLE17=トラック 18
TTITLE18=トラック 19
TTITLE19=トラック 20
TTITLE20=トラック 21
TTITLE21=トラック 22
TTITLE22=トラック 23
TTITLE23=トラック 24
TTITLE24=トラック 25
EXTD=
EXTT0=
EXTT1=
EXTT2=
EXTT3=
EXTT4=
EXTT5=
EXTT6=
EXTT7=
EXTT8=
EXTT9=
EXTT10=
EXTT11=
EXTT12=
EXTT13=
EXTT14=
EXTT15=
EXTT16=
EXTT17=
EXTT18=
EXTT19=
EXTT20=
EXTT21=
EXTT22=
EXTT23=
EXTT24=
PLAYORDER=
